<!-- @formatter:off -->
<svg xmlns="http://www.w3.org/2000/svg" xmlns:xlink="http://www.w3.org/1999/xlink">
    <defs>
        <svg id="add" width="24" height="24"  viewBox="0 0 24 24" xmlns="http://www.w3.org/2000/svg"><path d="M11.75 3a.75.75 0 0 1 .743.648l.007.102.001 7.25h7.253a.75.75 0 0 1 .102 1.493l-.102.007h-7.253l.002 7.25a.75.75 0 0 1-1.493.101l-.007-.102-.002-7.249H3.752a.75.75 0 0 1-.102-1.493L3.752 11h7.25L11 3.75a.75.75 0 0 1 .75-.75Z" /></svg>
        <svg id="arrow-back" width="24" height="24"  viewBox="0 0 24 24" xmlns="http://www.w3.org/2000/svg"><path d="M7 19a1 1 0 0 0 1 1h5c2.242 0 4.01-.778 5.218-2.023C19.414 16.744 20 15.113 20 13.5c0-1.613-.586-3.244-1.782-4.477C17.01 7.778 15.242 7 13 7H8.414l2.043-2.043a1 1 0 0 0-1.414-1.414l-3.75 3.75a1 1 0 0 0 0 1.414l3.75 3.75a1 1 0 0 0 1.414-1.414L8.414 9H13c1.758 0 2.99.597 3.782 1.415.804.83 1.218 1.948 1.218 3.085s-.414 2.256-1.218 3.085C15.99 17.403 14.758 18 13 18H8a1 1 0 0 0-1 1Z" /></svg>
        <!-- <svg id="building" width="24" height="24"  viewBox="0 0 24 24" xmlns="http://www.w3.org/2000/svg"><path d="M8.5 5.5a1 1 0 1 0 0 2 1 1 0 0 0 0-2ZM7.5 13.5a1 1 0 1 1 2 0 1 1 0 0 1-2 0ZM8.5 9a1 1 0 1 0 0 2 1 1 0 0 0 0-2ZM11 6.5a1 1 0 1 1 2 0 1 1 0 0 1-2 0ZM12 12.5a1 1 0 1 0 0 2 1 1 0 0 0 0-2ZM14.5 13.5a1 1 0 1 1 2 0 1 1 0 0 1-2 0ZM12 9a1 1 0 1 0 0 2 1 1 0 0 0 0-2Z" /><path d="M6.25 2A2.25 2.25 0 0 0 4 4.25v16.5c0 .414.336.75.75.75h14.503a.75.75 0 0 0 .75-.75v-9a2.25 2.25 0 0 0-2.25-2.25H16.5V4.25A2.25 2.25 0 0 0 14.25 2h-8ZM5.5 4.25a.75.75 0 0 1 .75-.75h8a.75.75 0 0 1 .75.75v6c0 .414.336.75.75.75h2.003a.75.75 0 0 1 .75.75V20H16.5v-2.75a.75.75 0 0 0-.75-.75h-7.5a.75.75 0 0 0-.75.75V20h-2V4.25ZM15 18v2h-2.25v-2H15Zm-3.75 0v2H9v-2h2.25Z" /></svg> -->
        <svg id="building" width="24" height="24"  viewBox="0 0 24 24" xmlns="http://www.w3.org/2000/svg"><path d="M6.75 2A2.25 2.25 0 0 0 4.5 4.25v16.5c0 .414.336.75.75.75H7.5v-4.25a.75.75 0 0 1 .75-.75h7.5a.75.75 0 0 1 .75.75v4.25h2.25a.75.75 0 0 0 .75-.75v-9a2.25 2.25 0 0 0-2.25-2.25h-.75V4.25A2.25 2.25 0 0 0 14.25 2h-7.5Zm.75 4.5a1 1 0 1 1 2 0 1 1 0 0 1-2 0Zm1 6a1 1 0 1 1 0 2 1 1 0 0 1 0-2Zm-1-2.5a1 1 0 1 1 2 0 1 1 0 0 1-2 0ZM12 5.5a1 1 0 1 1 0 2 1 1 0 0 1 0-2Zm-1 8a1 1 0 1 1 2 0 1 1 0 0 1-2 0Zm4.5-1a1 1 0 1 1 0 2 1 1 0 0 1 0-2ZM11 10a1 1 0 1 1 2 0 1 1 0 0 1-2 0Z" /><path d="M15 21.5V18h-2.25v3.5H15ZM11.25 21.5V18H9v3.5h2.25Z" /></svg>
        <svg id="building-bank" width="24" height="24"  viewBox="0 0 24 24" xmlns="http://www.w3.org/2000/svg"><path d="M10.968 2.325a1.75 1.75 0 0 1 2.064 0l7.421 5.416c.977.712.474 2.257-.734 2.26H4.28c-1.208-.003-1.71-1.548-.734-2.26l7.421-5.416ZM13 6.25a1 1 0 1 0-2 0 1 1 0 0 0 2 0ZM11.25 16h-2v-5h2v5ZM14.75 16h-2v-5h2v5ZM18.5 16h-2.25v-5h2.25v5ZM18.75 17H5.25A2.25 2.25 0 0 0 3 19.25v.5c0 .415.336.75.75.75h16.5a.75.75 0 0 0 .75-.75v-.5A2.25 2.25 0 0 0 18.75 17ZM7.75 16H5.5v-5h2.25v5Z" /></svg>
        <svg id="building-money" width="24" height="24"  viewBox="0 0 24 24" xmlns="http://www.w3.org/2000/svg"><path d="M7.5 11.5v-2h9v2h-9ZM4 3a2 2 0 0 0-1 3.732V20.25c0 .414.336.75.75.75H6v-5.25a.75.75 0 0 1 .75-.75h4a.75.75 0 0 1 .75.75V16c.456-.607 1.182-1 2-1H21V6.732A2 2 0 0 0 20 3H4Zm-.5 2a.5.5 0 0 1 .5-.5h16a.5.5 0 0 1 0 1H4a.5.5 0 0 1-.5-.5Zm3.25 3h10.5a.75.75 0 0 1 .75.75v3.5a.75.75 0 0 1-.75.75H6.75a.75.75 0 0 1-.75-.75v-3.5A.75.75 0 0 1 6.75 8ZM10 16.5V21H7.5v-4.5H10Zm2 1a1.5 1.5 0 0 1 1.5-1.5h8a1.5 1.5 0 0 1 1.5 1.5v4a1.5 1.5 0 0 1-1.5 1.5h-8a1.5 1.5 0 0 1-1.5-1.5v-4Zm10 .5a1 1 0 0 1-1-1h-1a2 2 0 0 0 2 2v-1Zm0 2a2 2 0 0 0-2 2h1a1 1 0 0 1 1-1v-1Zm-8-3a1 1 0 0 1-1 1v1a2 2 0 0 0 2-2h-1Zm1 5a2 2 0 0 0-2-2v1a1 1 0 0 1 1 1h1Zm4.25-2.5a1.75 1.75 0 1 0-3.5 0 1.75 1.75 0 0 0 3.5 0Z" /></svg>
        <!-- <svg id="calculator-multiple" width="24" height="24"  viewBox="0 0 24 24" xmlns="http://www.w3.org/2000/svg"><path d="M7.75 5A1.75 1.75 0 0 0 6 6.75v1c0 .966.784 1.75 1.75 1.75h5.5A1.75 1.75 0 0 0 15 7.75v-1A1.75 1.75 0 0 0 13.25 5h-5.5ZM7.5 6.75a.25.25 0 0 1 .25-.25h5.5a.25.25 0 0 1 .25.25v1a.25.25 0 0 1-.25.25h-5.5a.25.25 0 0 1-.25-.25v-1Zm3 4a1.25 1.25 0 1 0 0 2.5 1.25 1.25 0 0 0 0-2.5ZM9.25 15.5a1.25 1.25 0 1 1 2.5 0 1.25 1.25 0 0 1-2.5 0ZM7 10.75a1.25 1.25 0 1 0 0 2.5 1.25 1.25 0 0 0 0-2.5ZM5.75 15.5a1.25 1.25 0 1 1 2.5 0 1.25 1.25 0 0 1-2.5 0ZM14 10.75a1.25 1.25 0 1 0 0 2.5 1.25 1.25 0 0 0 0-2.5Zm-1.25 4.75a1.25 1.25 0 1 1 2.5 0 1.25 1.25 0 0 1-2.5 0ZM6.137 2A3.137 3.137 0 0 0 3 5.137v11.226A3.137 3.137 0 0 0 6.137 19.5h8.726A3.137 3.137 0 0 0 18 16.363V5.137A3.137 3.137 0 0 0 14.863 2H6.137ZM4.5 5.137c0-.904.733-1.637 1.637-1.637h8.726c.904 0 1.637.733 1.637 1.637v11.226c0 .904-.733 1.637-1.637 1.637H6.137A1.637 1.637 0 0 1 4.5 16.363V5.137Zm1.3 15.35A2.75 2.75 0 0 0 8.259 22h6.992c2.9 0 5.25-2.35 5.25-5.25v-9.5a2.75 2.75 0 0 0-1.514-2.457c.01.113.014.228.014.344V16.75a3.75 3.75 0 0 1-3.75 3.75H6.137c-.113 0-.225-.005-.336-.013Z" /></svg> -->
        <svg id="calculator-multiple" width="24" height="24"  viewBox="0 0 24 24" xmlns="http://www.w3.org/2000/svg"><path d="M6.137 2A3.137 3.137 0 0 0 3 5.137v11.226A3.137 3.137 0 0 0 6.137 19.5h8.726A3.137 3.137 0 0 0 18 16.363V5.137A3.137 3.137 0 0 0 14.863 2H6.137ZM7.75 5h5.5c.966 0 1.75.784 1.75 1.75v1a1.75 1.75 0 0 1-1.75 1.75h-5.5A1.75 1.75 0 0 1 6 7.75v-1C6 5.784 6.784 5 7.75 5Zm-2 7a1.25 1.25 0 1 1 2.5 0 1.25 1.25 0 0 1-2.5 0Zm4.75-1.25a1.25 1.25 0 1 1 0 2.5 1.25 1.25 0 0 1 0-2.5Zm0 3.5a1.25 1.25 0 1 1 0 2.5 1.25 1.25 0 0 1 0-2.5Zm-3.5 0a1.25 1.25 0 1 1 0 2.5 1.25 1.25 0 0 1 0-2.5ZM12.75 12a1.25 1.25 0 1 1 2.5 0 1.25 1.25 0 0 1-2.5 0ZM14 14.25a1.25 1.25 0 1 1 0 2.5 1.25 1.25 0 0 1 0-2.5Zm-8.2 6.237A2.75 2.75 0 0 0 8.259 22h6.992c2.9 0 5.25-2.35 5.25-5.25v-9.5a2.75 2.75 0 0 0-1.514-2.457c.01.113.014.228.014.344V16.75a3.75 3.75 0 0 1-3.75 3.75H6.137c-.113 0-.225-.005-.336-.013Z" /></svg>
        <svg id="calendar-ltr" width="24" height="24"  viewBox="0 0 24 24" xmlns="http://www.w3.org/2000/svg"><path d="M17.75 3A3.25 3.25 0 0 1 21 6.25v11.5A3.25 3.25 0 0 1 17.75 21H6.25A3.25 3.25 0 0 1 3 17.75V6.25A3.25 3.25 0 0 1 6.25 3h11.5Zm1.75 5.5h-15v9.25c0 .966.784 1.75 1.75 1.75h11.5a1.75 1.75 0 0 0 1.75-1.75V8.5Zm-11.75 6a1.25 1.25 0 1 1 0 2.5 1.25 1.25 0 0 1 0-2.5Zm4.25 0a1.25 1.25 0 1 1 0 2.5 1.25 1.25 0 0 1 0-2.5Zm-4.25-4a1.25 1.25 0 1 1 0 2.5 1.25 1.25 0 0 1 0-2.5Zm4.25 0a1.25 1.25 0 1 1 0 2.5 1.25 1.25 0 0 1 0-2.5Zm4.25 0a1.25 1.25 0 1 1 0 2.5 1.25 1.25 0 0 1 0-2.5Zm1.5-6H6.25A1.75 1.75 0 0 0 4.5 6.25V7h15v-.75a1.75 1.75 0 0 0-1.75-1.75Z" /></svg>
        <svg id="chevron-left" width="24" height="24"  viewBox="0 0 24 24" xmlns="http://www.w3.org/2000/svg"><path d="M15.707 4.293a1 1 0 0 1 0 1.414L9.414 12l6.293 6.293a1 1 0 0 1-1.414 1.414l-7-7a1 1 0 0 1 0-1.414l7-7a1 1 0 0 1 1.414 0Z" /></svg>
        <svg id="chevron-right" width="24" height="24"  viewBox="0 0 24 24" xmlns="http://www.w3.org/2000/svg"><path d="M8.293 4.293a1 1 0 0 0 0 1.414L14.586 12l-6.293 6.293a1 1 0 1 0 1.414 1.414l7-7a1 1 0 0 0 0-1.414l-7-7a1 1 0 0 0-1.414 0Z" /></svg>
        <svg id="comment" width="24" height="24"  viewBox="0 0 24 24" xmlns="http://www.w3.org/2000/svg"><path d="M5.25 18A3.25 3.25 0 0 1 2 14.75v-8.5A3.25 3.25 0 0 1 5.25 3h13.5A3.25 3.25 0 0 1 22 6.25v8.5A3.25 3.25 0 0 1 18.75 18h-5.738L8 21.75a1.25 1.25 0 0 1-1.999-1V18h-.75Zm7.264-1.5h6.236a1.75 1.75 0 0 0 1.75-1.75v-8.5a1.75 1.75 0 0 0-1.75-1.75H5.25A1.75 1.75 0 0 0 3.5 6.25v8.5c0 .966.784 1.75 1.75 1.75h2.249v3.75l5.015-3.75Z" /></svg>
        <svg id="edit" width="24" height="24"  viewBox="0 0 24 24" xmlns="http://www.w3.org/2000/svg"><path d="M21.03 2.97a3.578 3.578 0 0 1 0 5.06L9.062 20a2.25 2.25 0 0 1-.999.58l-5.116 1.395a.75.75 0 0 1-.92-.921l1.395-5.116a2.25 2.25 0 0 1 .58-.999L15.97 2.97a3.578 3.578 0 0 1 5.06 0ZM15 6.06 5.062 16a.75.75 0 0 0-.193.333l-1.05 3.85 3.85-1.05A.75.75 0 0 0 8 18.938L17.94 9 15 6.06Zm2.03-2.03-.97.97L19 7.94l.97-.97a2.079 2.079 0 0 0-2.94-2.94Z" /></svg>
        <!-- <svg id="edit-settings" width="24" height="24"  viewBox="0 0 24 24" xmlns="http://www.w3.org/2000/svg"><path d="M21.031 2.97a3.579 3.579 0 0 1 0 5.06l-2.992 2.992a6.565 6.565 0 0 0-2.358.236L17.94 9 15.001 6.06 5.063 16a.75.75 0 0 0-.193.332l-1.05 3.85 3.85-1.05a.75.75 0 0 0 .332-.193l3.257-3.257a6.501 6.501 0 0 0-.236 2.357l-1.96 1.96a2.25 2.25 0 0 1-1 .58l-5.115 1.395a.75.75 0 0 1-.92-.92l1.394-5.116a2.25 2.25 0 0 1 .58-1L15.97 2.97a3.578 3.578 0 0 1 5.061 0Zm-4 1.06-.97.97L19 7.94l.97-.97a2.078 2.078 0 1 0-2.939-2.94Zm-2.752 9.945a2 2 0 0 1-1.441 2.497l-.584.144a5.729 5.729 0 0 0 .006 1.807l.54.13a2 2 0 0 1 1.45 2.51l-.187.632c.44.386.94.699 1.484.921l.494-.518a2 2 0 0 1 2.899 0l.498.525a5.28 5.28 0 0 0 1.483-.913l-.198-.686a2 2 0 0 1 1.442-2.496l.583-.144a5.729 5.729 0 0 0-.006-1.808l-.54-.13a2 2 0 0 1-1.45-2.51l.187-.63a5.28 5.28 0 0 0-1.484-.923l-.493.519a2 2 0 0 1-2.9 0l-.498-.525c-.544.22-1.044.53-1.483.912l.198.686ZM17.501 19c-.8 0-1.45-.672-1.45-1.5 0-.829.65-1.5 1.45-1.5.8 0 1.45.671 1.45 1.5 0 .828-.65 1.5-1.45 1.5Z" /></svg> -->
        <svg id="edit-settings" width="24" height="24"  viewBox="0 0 24 24" xmlns="http://www.w3.org/2000/svg"><path d="m13.94 5 5.061 5.06-.962.962a6.5 6.5 0 0 0-7.016 7.016l-1.96 1.96a2.25 2.25 0 0 1-1 .58l-5.115 1.395a.75.75 0 0 1-.92-.92l1.394-5.116a2.25 2.25 0 0 1 .58-1L13.94 5Zm7.091-2.03a3.579 3.579 0 0 1 0 5.06l-.97.97L15 3.94l.97-.97a3.578 3.578 0 0 1 5.061 0ZM14.28 13.974a2 2 0 0 1-1.441 2.497l-.584.144a5.729 5.729 0 0 0 .006 1.807l.54.13a2 2 0 0 1 1.45 2.51l-.187.632c.44.386.94.699 1.484.921l.494-.518a2 2 0 0 1 2.899 0l.498.525a5.28 5.28 0 0 0 1.483-.913l-.198-.686a2 2 0 0 1 1.442-2.496l.583-.144a5.729 5.729 0 0 0-.006-1.808l-.54-.13a2 2 0 0 1-1.45-2.51l.187-.63a5.28 5.28 0 0 0-1.484-.923l-.493.519a2 2 0 0 1-2.9 0l-.498-.525c-.544.22-1.044.53-1.483.912l.198.686ZM17.501 19c-.8 0-1.45-.672-1.45-1.5 0-.829.65-1.5 1.45-1.5.8 0 1.45.671 1.45 1.5 0 .828-.65 1.5-1.45 1.5Z" /></svg>
        <svg id="eye-show" width="24" height="24"  viewBox="0 0 24 24" xmlns="http://www.w3.org/2000/svg"><path d="M12 9.005a4 4 0 1 1 0 8 4 4 0 0 1 0-8Zm0 1.5a2.5 2.5 0 1 0 0 5 2.5 2.5 0 0 0 0-5ZM12 5.5c4.613 0 8.596 3.15 9.701 7.564a.75.75 0 1 1-1.455.365 8.503 8.503 0 0 0-16.493.004.75.75 0 0 1-1.455-.363A10.003 10.003 0 0 1 12 5.5Z" /></svg>
        <svg id="filter" width="24" height="24"  viewBox="0 0 24 24" xmlns="http://www.w3.org/2000/svg"><path d="M10 16h4a1 1 0 0 1 .117 1.993L14 18h-4a1 1 0 0 1-.117-1.993L10 16h4-4Zm-2-5h8a1 1 0 0 1 .117 1.993L16 13H8a1 1 0 0 1-.117-1.993L8 11h8-8ZM5 6h14a1 1 0 0 1 .117 1.993L19 8H5a1 1 0 0 1-.117-1.993L5 6h14H5Z" /></svg>
        <svg id="grid" width="24" height="24"  viewBox="0 0 24 24" xmlns="http://www.w3.org/2000/svg"><path d="M8.75 13A2.25 2.25 0 0 1 11 15.25v3.5A2.25 2.25 0 0 1 8.75 21h-3.5A2.25 2.25 0 0 1 3 18.75v-3.5A2.25 2.25 0 0 1 5.25 13h3.5Zm10 0A2.25 2.25 0 0 1 21 15.25v3.5A2.25 2.25 0 0 1 18.75 21h-3.5A2.25 2.25 0 0 1 13 18.75v-3.5A2.25 2.25 0 0 1 15.25 13h3.5Zm-10 1.5h-3.5a.75.75 0 0 0-.75.75v3.5c0 .414.336.75.75.75h3.5a.75.75 0 0 0 .75-.75v-3.5a.75.75 0 0 0-.75-.75Zm10 0h-3.5a.75.75 0 0 0-.75.75v3.5c0 .414.336.75.75.75h3.5a.75.75 0 0 0 .75-.75v-3.5a.75.75 0 0 0-.75-.75ZM8.75 3A2.25 2.25 0 0 1 11 5.25v3.5A2.25 2.25 0 0 1 8.75 11h-3.5A2.25 2.25 0 0 1 3 8.75v-3.5A2.25 2.25 0 0 1 5.25 3h3.5Zm10 0A2.25 2.25 0 0 1 21 5.25v3.5A2.25 2.25 0 0 1 18.75 11h-3.5A2.25 2.25 0 0 1 13 8.75v-3.5A2.25 2.25 0 0 1 15.25 3h3.5Zm-10 1.5h-3.5a.75.75 0 0 0-.75.75v3.5c0 .414.336.75.75.75h3.5a.75.75 0 0 0 .75-.75v-3.5a.75.75 0 0 0-.75-.75Zm10 0h-3.5a.75.75 0 0 0-.75.75v3.5c0 .414.336.75.75.75h3.5a.75.75 0 0 0 .75-.75v-3.5a.75.75 0 0 0-.75-.75Z" /></svg>
        <!-- <svg id="history" width="24" height="24"  viewBox="0 0 24 24" xmlns="http://www.w3.org/2000/svg"><path d="M12 3a9 9 0 1 1-8.963 8.182.75.75 0 1 1 1.494.135 7.46 7.46 0 0 0 2.166 5.986A7.46 7.46 0 0 0 12 19.5 7.5 7.5 0 1 0 5.997 7.502h2.756a.75.75 0 0 1 .102 1.493l-.102.007H4.25a.75.75 0 0 1-.743-.648L3.5 8.252v-4.5a.75.75 0 0 1 1.493-.102L5 3.752l-.001 2.591A8.986 8.986 0 0 1 12 3Zm-.75 4a.75.75 0 0 1 .743.648L12 7.75V12h2.25a.75.75 0 0 1 .102 1.493l-.102.007h-3a.75.75 0 0 1-.743-.648l-.007-.102v-5a.75.75 0 0 1 .75-.75Z" /></svg> -->
        <svg id="history" width="24" height="24"  viewBox="0 0 24 24" xmlns="http://www.w3.org/2000/svg"><path d="M12 3a9 9 0 1 1-8.963 8.183 1 1 0 1 1 1.992.18A6.962 6.962 0 0 0 7.05 16.95c.375.375.792.707 1.242.988A7 7 0 1 0 7.098 7.002l1.4.001a1 1 0 0 1 .116 1.994l-.116.006H4.496a1 1 0 0 1-.993-.883l-.007-.117v-4a1 1 0 0 1 1.994-.116l.006.117v1.774A8.983 8.983 0 0 1 12 3Zm-.75 4a.75.75 0 0 1 .743.648L12 7.75V12h2.25a.75.75 0 0 1 .102 1.493l-.102.007h-3a.75.75 0 0 1-.743-.648l-.007-.102v-5a.75.75 0 0 1 .75-.75Z" /></svg>
        <!-- <svg id="home" width="24" height="24"  viewBox="0 0 24 24" xmlns="http://www.w3.org/2000/svg"><path d="M10.55 2.532a2.25 2.25 0 0 1 2.9 0l6.75 5.692c.507.428.8 1.057.8 1.72v9.803a1.75 1.75 0 0 1-1.75 1.75h-3.5a1.75 1.75 0 0 1-1.75-1.75v-5.5a.25.25 0 0 0-.25-.25h-3.5a.25.25 0 0 0-.25.25v5.5a1.75 1.75 0 0 1-1.75 1.75h-3.5A1.75 1.75 0 0 1 3 19.747V9.944c0-.663.293-1.292.8-1.72l6.75-5.692Zm1.933 1.147a.75.75 0 0 0-.966 0L4.767 9.37a.75.75 0 0 0-.267.573v9.803c0 .138.112.25.25.25h3.5a.25.25 0 0 0 .25-.25v-5.5c0-.967.784-1.75 1.75-1.75h3.5c.966 0 1.75.783 1.75 1.75v5.5c0 .138.112.25.25.25h3.5a.25.25 0 0 0 .25-.25V9.944a.75.75 0 0 0-.267-.573l-6.75-5.692Z" /></svg> -->
        <svg id="home" width="24" height="24"  viewBox="0 0 24 24" xmlns="http://www.w3.org/2000/svg"><path d="M10.55 2.533a2.25 2.25 0 0 1 2.9 0l6.75 5.695c.508.427.8 1.056.8 1.72v9.802a1.75 1.75 0 0 1-1.75 1.75h-3a1.75 1.75 0 0 1-1.75-1.75v-5a.75.75 0 0 0-.75-.75h-3.5a.75.75 0 0 0-.75.75v5a1.75 1.75 0 0 1-1.75 1.75h-3A1.75 1.75 0 0 1 3 19.75V9.947c0-.663.292-1.292.8-1.72l6.75-5.694Z" /></svg>
        <svg id="key" width="24" height="24"  viewBox="0 0 24 24" xmlns="http://www.w3.org/2000/svg"><path d="M8.95 8.6a6.554 6.554 0 0 1 6.55-6.55c3.596 0 6.55 2.819 6.55 6.45a6.554 6.554 0 0 1-6.55 6.55c-.531 0-1.055-.076-1.552-.204A1.25 1.25 0 0 1 12.7 16.05h-1.75v1.75c0 .69-.56 1.25-1.25 1.25H7.95v1.25a1.75 1.75 0 0 1-1.75 1.75H3.7a1.75 1.75 0 0 1-1.75-1.75v-2.172c0-.73.29-1.429.806-1.944L8.99 9.948a.275.275 0 0 0 .07-.244A6.386 6.386 0 0 1 8.95 8.6Zm9.3-1.6a1.25 1.25 0 1 0-2.5 0 1.25 1.25 0 0 0 2.5 0Z" /></svg>
        <svg id="money" width="24" height="24"  viewBox="0 0 24 24" xmlns="http://www.w3.org/2000/svg"><path d="M10.5 8a3 3 0 1 0 0 6 3 3 0 0 0 0-6ZM9 11a1.5 1.5 0 1 1 3 0 1.5 1.5 0 0 1-3 0Z" /><path d="M2 7.25A2.25 2.25 0 0 1 4.25 5h12.5A2.25 2.25 0 0 1 19 7.25v7.5A2.25 2.25 0 0 1 16.75 17H4.25A2.25 2.25 0 0 1 2 14.75v-7.5Zm2.25-.75a.75.75 0 0 0-.75.75V8h.75A.75.75 0 0 0 5 7.25V6.5h-.75Zm-.75 6h.75a2.25 2.25 0 0 1 2.25 2.25v.75h8v-.75a2.25 2.25 0 0 1 2.25-2.25h.75v-3h-.75a2.25 2.25 0 0 1-2.25-2.25V6.5h-8v.75A2.25 2.25 0 0 1 4.25 9.5H3.5v3Zm14-4.5v-.75a.75.75 0 0 0-.75-.75H16v.75c0 .414.336.75.75.75h.75Zm0 6h-.75a.75.75 0 0 0-.75.75v.75h.75a.75.75 0 0 0 .75-.75V14Zm-14 .75c0 .414.336.75.75.75H5v-.75a.75.75 0 0 0-.75-.75H3.5v.75Z" /><path d="M4.401 18.5A2.999 2.999 0 0 0 7 20h10.25A4.75 4.75 0 0 0 22 15.25V10c0-1.11-.603-2.08-1.5-2.599v7.849a3.25 3.25 0 0 1-3.25 3.25H4.401Z" /></svg>
        <!-- <svg id="money-calculator" width="24" height="24"  viewBox="0 0 24 24" xmlns="http://www.w3.org/2000/svg"><path d="M10.5 7a3 3 0 1 0 0 6 3 3 0 0 0 0-6ZM9 10a1.5 1.5 0 1 1 3 0 1.5 1.5 0 0 1-3 0ZM2 6.25A2.25 2.25 0 0 1 4.25 4h12.5A2.25 2.25 0 0 1 19 6.25V11h-1.5V8.5h-.75a2.25 2.25 0 0 1-2.25-2.25V5.5h-8v.75A2.25 2.25 0 0 1 4.25 8.5H3.5v3h.75a2.25 2.25 0 0 1 2.25 2.25v.75H14V16H4.25A2.25 2.25 0 0 1 2 13.75v-7.5Zm2.25-.75a.75.75 0 0 0-.75.75V7h.75A.75.75 0 0 0 5 6.25V5.5h-.75ZM17.5 7v-.75a.75.75 0 0 0-.75-.75H16v.75c0 .414.336.75.75.75h.75Zm-14 6.75c0 .414.336.75.75.75H5v-.75a.75.75 0 0 0-.75-.75H3.5v.75Zm.901 3.75H14V19H7c-1.11 0-2.08-.603-2.599-1.5ZM22 11V9c0-1.11-.603-2.08-1.5-2.599V11H22Zm-5.5 1a1.5 1.5 0 0 0-1.5 1.5v8a1.5 1.5 0 0 0 1.5 1.5h5a1.5 1.5 0 0 0 1.5-1.5v-8a1.5 1.5 0 0 0-1.5-1.5h-5Zm.5 4.5h1a.5.5 0 0 1 0 1h-1a.5.5 0 0 1 0-1Zm3 0h1a.5.5 0 0 1 0 1h-1a.5.5 0 0 1 0-1Zm-3 2h1a.5.5 0 0 1 0 1h-1a.5.5 0 0 1 0-1Zm3 0h1a.5.5 0 0 1 0 1h-1a.5.5 0 0 1 0-1Zm-3 2h1a.5.5 0 0 1 0 1h-1a.5.5 0 0 1 0-1Zm3 0h1a.5.5 0 0 1 0 1h-1a.5.5 0 0 1 0-1ZM16.5 14a.5.5 0 0 1 .5-.5h4a.5.5 0 0 1 .5.5v1a.5.5 0 0 1-.5.5h-4a.5.5 0 0 1-.5-.5v-1Z" /></svg> -->
        <svg id="money-calculator" width="24" height="24"  viewBox="0 0 24 24" xmlns="http://www.w3.org/2000/svg"><path d="M2 5.75C2 4.784 2.784 4 3.75 4h13.5c.966 0 1.75.784 1.75 1.75V11h-3a2 2 0 0 0-2 2v3H3.75A1.75 1.75 0 0 1 2 14.25v-8.5Zm3 .5a.75.75 0 0 1-.75.75h-1v1.5h1A2.25 2.25 0 0 0 6.5 6.25v-1H5v1Zm5.5 6.25a2.25 2.25 0 1 0 0-4.5 2.25 2.25 0 0 0 0 4.5Zm-6.25.5a.75.75 0 0 1 .75.75v1h1.5v-1a2.25 2.25 0 0 0-2.25-2.25h-1V13h1Zm12.5-6a.75.75 0 0 1-.75-.75v-1h-1.5v1a2.25 2.25 0 0 0 2.25 2.25h1V7h-1ZM4.401 17.5H14V19H7c-1.11 0-2.08-.603-2.599-1.5ZM22 9v2h-1.5V6.401A2.999 2.999 0 0 1 22 9Zm-5.5 3a1.5 1.5 0 0 0-1.5 1.5v8a1.5 1.5 0 0 0 1.5 1.5h5a1.5 1.5 0 0 0 1.5-1.5v-8a1.5 1.5 0 0 0-1.5-1.5h-5Zm.5 4.5h1a.5.5 0 0 1 0 1h-1a.5.5 0 0 1 0-1Zm3 0h1a.5.5 0 0 1 0 1h-1a.5.5 0 0 1 0-1Zm-3 2h1a.5.5 0 0 1 0 1h-1a.5.5 0 0 1 0-1Zm3 0h1a.5.5 0 0 1 0 1h-1a.5.5 0 0 1 0-1Zm-3 2h1a.5.5 0 0 1 0 1h-1a.5.5 0 0 1 0-1Zm3 0h1a.5.5 0 0 1 0 1h-1a.5.5 0 0 1 0-1ZM16.5 14a.5.5 0 0 1 .5-.5h4a.5.5 0 0 1 .5.5v1a.5.5 0 0 1-.5.5h-4a.5.5 0 0 1-.5-.5v-1Z" /></svg>
        <svg id="payment" width="24" height="24"  viewBox="0 0 24 24" xmlns="http://www.w3.org/2000/svg"><path d="M2 7.75A2.75 2.75 0 0 1 4.75 5h14.5A2.75 2.75 0 0 1 22 7.75V9.5H2V7.75ZM2 11h20v5.25A2.75 2.75 0 0 1 19.25 19H4.75A2.75 2.75 0 0 1 2 16.25V11Zm13.75 3.5a.75.75 0 0 0 0 1.5h2.5a.75.75 0 0 0 0-1.5h-2.5Z" /></svg>
        <svg id="people-team" width="24" height="24"  viewBox="0 0 24 24" xmlns="http://www.w3.org/2000/svg"><path d="M14.754 10c.966 0 1.75.784 1.75 1.75v4.749a4.501 4.501 0 0 1-9.002 0V11.75c0-.966.783-1.75 1.75-1.75h5.502Zm-7.623 0c-.35.422-.575.95-.62 1.53l-.01.22v4.749c0 .847.192 1.649.534 2.365A4.001 4.001 0 0 1 2 14.999V11.75a1.75 1.75 0 0 1 1.606-1.744L3.75 10h3.381Zm9.744 0h3.375c.966 0 1.75.784 1.75 1.75V15a4 4 0 0 1-5.03 3.866c.3-.628.484-1.32.525-2.052l.009-.315V11.75c0-.665-.236-1.275-.63-1.75ZM12 3a3 3 0 1 1 0 6 3 3 0 0 1 0-6Zm6.5 1a2.5 2.5 0 1 1 0 5 2.5 2.5 0 0 1 0-5Zm-13 0a2.5 2.5 0 1 1 0 5 2.5 2.5 0 0 1 0-5Z" /></svg>
        <svg id="person" width="24" height="24"  viewBox="0 0 24 24" xmlns="http://www.w3.org/2000/svg"><path d="M17.754 14a2.249 2.249 0 0 1 2.25 2.249v.918a2.75 2.75 0 0 1-.513 1.599C17.945 20.929 15.42 22 12 22c-3.422 0-5.945-1.072-7.487-3.237a2.75 2.75 0 0 1-.51-1.595v-.92a2.249 2.249 0 0 1 2.249-2.25h11.501ZM12 2.004a5 5 0 1 1 0 10 5 5 0 0 1 0-10Z" /></svg>
        <svg id="print" width="24" height="24"  viewBox="0 0 24 24" xmlns="http://www.w3.org/2000/svg"><path d="M15.752 3a2.25 2.25 0 0 1 2.25 2.25v.753h.75a3.254 3.254 0 0 1 3.252 3.25l.003 5.997a2.249 2.249 0 0 1-2.248 2.25H18v1.25A2.25 2.25 0 0 1 15.75 21h-7.5A2.25 2.25 0 0 1 6 18.75V17.5H4.25A2.25 2.25 0 0 1 2 15.25V9.254a3.25 3.25 0 0 1 3.25-3.25l.749-.001L6 5.25A2.25 2.25 0 0 1 8.25 3h7.502Zm-.002 10.5h-7.5a.75.75 0 0 0-.75.75v4.5c0 .414.336.75.75.75h7.5a.75.75 0 0 0 .75-.75v-4.5a.75.75 0 0 0-.75-.75Zm3.002-5.996H5.25a1.75 1.75 0 0 0-1.75 1.75v5.996c0 .414.336.75.75.75H6v-1.75A2.25 2.25 0 0 1 8.25 12h7.5A2.25 2.25 0 0 1 18 14.25V16h1.783a.749.749 0 0 0 .724-.749l-.003-5.997a1.754 1.754 0 0 0-1.752-1.75Zm-3-3.004H8.25a.75.75 0 0 0-.75.75l-.001.753h9.003V5.25a.75.75 0 0 0-.75-.75Z" /></svg>
        <svg id="record" width="24" height="24"  viewBox="0 0 24 24" xmlns="http://www.w3.org/2000/svg"><path d="M12 18a6 6 0 1 0 0-12 6 6 0 0 0 0 12Z" /><path d="M12 2C6.477 2 2 6.477 2 12s4.477 10 10 10 10-4.477 10-10S17.523 2 12 2ZM3.5 12a8.5 8.5 0 1 1 17 0 8.5 8.5 0 0 1-17 0Z" /></svg>
        <svg id="receipt-money" width="24" height="24"  viewBox="0 0 24 24" xmlns="http://www.w3.org/2000/svg"><path d="M5 6.25A2.25 2.25 0 0 1 7.25 4h8.5A2.25 2.25 0 0 1 18 6.25V14h3.5v3.25a3.25 3.25 0 0 1-3.25 3.25H13v-4h1.25a.75.75 0 0 0 0-1.5H12.5a2.496 2.496 0 0 0-2-1H5V6.25ZM18 19h.25A1.75 1.75 0 0 0 20 17.25V15.5h-2V19ZM8.75 8a.75.75 0 0 0 0 1.5h5.5a.75.75 0 0 0 0-1.5h-5.5Zm0 3.5a.75.75 0 0 0 0 1.5h5.5a.75.75 0 0 0 0-1.5h-5.5ZM1 16.5A1.5 1.5 0 0 1 2.5 15h8a1.5 1.5 0 0 1 1.5 1.5v4a1.5 1.5 0 0 1-1.5 1.5h-8A1.5 1.5 0 0 1 1 20.5v-4Zm10 .5a1 1 0 0 1-1-1H9a2 2 0 0 0 2 2v-1Zm0 2a2 2 0 0 0-2 2h1a1 1 0 0 1 1-1v-1Zm-8-3a1 1 0 0 1-1 1v1a2 2 0 0 0 2-2H3Zm1 5a2 2 0 0 0-2-2v1a1 1 0 0 1 1 1h1Zm4.25-2.5a1.75 1.75 0 1 0-3.5 0 1.75 1.75 0 0 0 3.5 0Z" fill="#212121"/></svg>
        <svg id="search" width="24" height="24"  viewBox="0 0 24 24" xmlns="http://www.w3.org/2000/svg"><path d="M10 2.5a7.5 7.5 0 0 1 5.964 12.048l4.743 4.745a1 1 0 0 1-1.32 1.497l-.094-.083-4.745-4.743A7.5 7.5 0 1 1 10 2.5Zm0 2a5.5 5.5 0 1 0 0 11 5.5 5.5 0 0 0 0-11Z" /></svg>
        <svg id="settings" width="24" height="24"  viewBox="0 0 24 24" xmlns="http://www.w3.org/2000/svg"><path d="M12.012 2.25c.734.008 1.465.093 2.182.253a.75.75 0 0 1 .582.649l.17 1.527a1.384 1.384 0 0 0 1.927 1.116l1.401-.615a.75.75 0 0 1 .85.174 9.792 9.792 0 0 1 2.204 3.792.75.75 0 0 1-.271.825l-1.242.916a1.381 1.381 0 0 0 0 2.226l1.243.915a.75.75 0 0 1 .272.826 9.797 9.797 0 0 1-2.204 3.792.75.75 0 0 1-.848.175l-1.407-.617a1.38 1.38 0 0 0-1.926 1.114l-.169 1.526a.75.75 0 0 1-.572.647 9.518 9.518 0 0 1-4.406 0 .75.75 0 0 1-.572-.647l-.168-1.524a1.382 1.382 0 0 0-1.926-1.11l-1.406.616a.75.75 0 0 1-.849-.175 9.798 9.798 0 0 1-2.204-3.796.75.75 0 0 1 .272-.826l1.243-.916a1.38 1.38 0 0 0 0-2.226l-1.243-.914a.75.75 0 0 1-.271-.826 9.793 9.793 0 0 1 2.204-3.792.75.75 0 0 1 .85-.174l1.4.615a1.387 1.387 0 0 0 1.93-1.118l.17-1.526a.75.75 0 0 1 .583-.65c.717-.159 1.45-.243 2.201-.252ZM12 9a3 3 0 1 0 0 6 3 3 0 0 0 0-6Z" /></svg>
        <svg id="download" width="24" height="24" viewBox="0 0 24 24" xmlns="http://www.w3.org/2000/svg"><path d="M7.503 13.002a.5.5 0 0 0-.5.5v3a.5.5 0 0 0 1 0v-.5H8.5a1.5 1.5 0 0 0 0-3h-.997Zm.997 2h-.497v-1H8.5a.5.5 0 1 1 0 1ZM14.998 13.501a.5.5 0 0 1 .5-.499h1.505a.5.5 0 1 1 0 1h-1.006l-.001 1.002h1.007a.5.5 0 0 1 0 1h-1.007l.002.497a.5.5 0 0 1-1 .002l-.003-.998v-.002l.003-2.002ZM11.5 13.002a.5.5 0 0 0-.5.5v3a.5.5 0 0 0 .5.5h.498a2 2 0 0 0 0-4H11.5Zm.5 3v-2a1 1 0 0 1 0 2Z"/><path d="M20 20v-1.164c.591-.281 1-.884 1-1.582V12.75c0-.698-.409-1.3-1-1.582v-1.34a2 2 0 0 0-.586-1.414l-5.829-5.828a.491.491 0 0 0-.049-.04.63.63 0 0 1-.036-.03 2.072 2.072 0 0 0-.219-.18.652.652 0 0 0-.08-.044l-.048-.024-.05-.029c-.054-.031-.109-.063-.166-.087a1.977 1.977 0 0 0-.624-.138c-.02-.001-.04-.004-.059-.007A.605.605 0 0 0 12.172 2H6a2 2 0 0 0-2 2v7.168c-.591.281-1 .884-1 1.582v4.504c0 .698.409 1.3 1 1.582V20a2 2 0 0 0 2 2h12a2 2 0 0 0 2-2Zm-2 .5H6a.5.5 0 0 1-.5-.5v-.996h13V20a.5.5 0 0 1-.5.5Zm.5-10.5v1h-13V4a.5.5 0 0 1 .5-.5h6V8a2 2 0 0 0 2 2h4.5Zm-1.122-1.5H14a.5.5 0 0 1-.5-.5V4.621L17.378 8.5Zm-12.628 4h14.5a.25.25 0 0 1 .25.25v4.504a.25.25 0 0 1-.25.25H4.75a.25.25 0 0 1-.25-.25V12.75a.25.25 0 0 1 .25-.25Z"/></svg>
    </defs>
</svg>
